<svg xmlns="http://www.w3.org/2000/svg" width="375" viewBox="0 0 375 375" height="375" version="1.0"><defs><clipPath id="a"><path d="M 131.3125 76.015625 L 243.0625 76.015625 L 243.0625 202 L 131.3125 202 Z M 131.3125 76.015625"/></clipPath><clipPath id="b"><path d="M 157.457031 113.828125 L 217.457031 113.828125 L 217.457031 164.078125 L 157.457031 164.078125 Z M 157.457031 113.828125"/></clipPath></defs><g clip-path="url(#a)"><path fill="#545454" d="M 236.359375 175.238281 L 193.890625 199.816406 C 190.191406 201.960938 184.183594 201.960938 180.480469 199.816406 L 138.011719 175.238281 C 134.3125 173.09375 131.308594 167.878906 131.308594 163.59375 L 131.308594 114.433594 C 131.308594 110.152344 134.3125 104.933594 138.011719 102.792969 L 180.480469 78.214844 C 184.183594 76.070312 190.191406 76.070312 193.890625 78.214844 L 236.359375 102.792969 C 240.058594 104.933594 243.066406 110.152344 243.066406 114.433594 L 243.066406 163.59375 C 243.066406 167.878906 240.058594 173.09375 236.359375 175.238281 Z M 236.359375 175.238281"/></g><g clip-path="url(#b)"><path fill="#008037" d="M 187.589844 137.675781 L 172.917969 113.882812 L 157.457031 113.882812 L 157.457031 164.019531 L 174.992188 164.019531 L 174.992188 146.871094 L 183.058594 159.753906 L 191.769531 159.753906 L 199.832031 146.261719 L 199.949219 164.019531 L 217.457031 164.019531 L 217.3125 113.882812 L 201.851562 113.882812 Z M 187.589844 137.675781"/></g><path fill="#FFF" d="M 180.480469 117.664062 C 185.195312 113.820312 192.128906 114.523438 195.972656 119.234375 C 199.816406 123.945312 199.113281 130.882812 194.402344 134.726562 C 189.691406 138.570312 182.757812 137.867188 178.914062 133.15625 C 175.070312 128.445312 175.769531 121.511719 180.480469 117.664062 Z M 180.480469 117.664062" fill-rule="evenodd"/><path d="M 180.71875 117.953125 C 176.167969 121.667969 175.488281 128.371094 179.203125 132.921875 C 182.914062 137.46875 189.617188 138.148438 194.167969 134.4375 C 198.71875 130.722656 199.398438 124.023438 195.683594 119.472656 C 191.96875 114.921875 185.269531 114.242188 180.71875 117.953125 Z M 180.5 117.6875 C 175.800781 121.519531 175.097656 128.441406 178.933594 133.140625 C 182.765625 137.835938 189.6875 138.539062 194.386719 134.703125 C 199.085938 130.871094 199.785156 123.949219 195.953125 119.253906 C 192.117188 114.554688 185.199219 113.851562 180.5 117.6875 Z M 180.5 117.6875" fill-rule="evenodd"/><path d="M 177.597656 126.453125 C 177.636719 125.507812 177.746094 124.546875 177.917969 123.578125 C 178.089844 122.605469 178.328125 121.617188 178.636719 120.613281 L 179.089844 120.753906 C 178.789062 121.734375 178.554688 122.707031 178.386719 123.660156 C 178.214844 124.613281 178.113281 125.554688 178.074219 126.472656 Z M 177.597656 126.453125"/><path d="M 181.890625 118.46875 C 182.628906 119.082031 183.347656 119.710938 184.050781 120.363281 C 184.75 121.015625 185.425781 121.683594 186.070312 122.375 L 185.722656 122.699219 C 185.082031 122.015625 184.414062 121.351562 183.726562 120.710938 C 183.039062 120.070312 182.324219 119.449219 181.585938 118.835938 Z M 181.890625 118.46875"/><path d="M 188.191406 121.410156 C 188.613281 120.710938 189.042969 120.027344 189.488281 119.375 C 189.941406 118.714844 190.410156 118.078125 190.902344 117.476562 L 191.273438 117.78125 C 190.78125 118.375 190.320312 119 189.878906 119.644531 C 189.433594 120.296875 189.011719 120.96875 188.597656 121.65625 Z M 188.191406 121.410156"/><path d="M 194.328125 118.09375 C 194.828125 118.984375 195.316406 119.882812 195.78125 120.804688 C 196.246094 121.726562 196.691406 122.664062 197.097656 123.640625 L 196.65625 123.824219 C 196.257812 122.867188 195.820312 121.933594 195.355469 121.019531 C 194.894531 120.109375 194.410156 119.214844 193.914062 118.324219 Z M 194.328125 118.09375"/><path d="M 189.535156 124.625 C 190.734375 124.835938 191.898438 125.074219 193.023438 125.34375 C 194.152344 125.609375 195.246094 125.90625 196.300781 126.234375 L 196.160156 126.6875 C 195.113281 126.363281 194.03125 126.070312 192.914062 125.804688 C 191.792969 125.539062 190.640625 125.300781 189.453125 125.09375 Z M 189.535156 124.625"/><path d="M 187.808594 127.480469 C 187.917969 128.523438 188.066406 129.503906 188.242188 130.441406 C 188.417969 131.378906 188.621094 132.28125 188.835938 133.167969 L 188.371094 133.28125 C 188.160156 132.390625 187.957031 131.484375 187.777344 130.53125 C 187.597656 129.582031 187.445312 128.589844 187.335938 127.53125 Z M 187.808594 127.480469"/><path d="M 184.535156 125.921875 C 183.765625 126.25 182.980469 126.65625 182.191406 127.128906 C 181.398438 127.601562 180.597656 128.136719 179.796875 128.71875 L 179.515625 128.335938 C 180.332031 127.738281 181.144531 127.195312 181.945312 126.71875 C 182.75 126.242188 183.550781 125.824219 184.347656 125.484375 Z M 184.535156 125.921875"/><path d="M 180.152344 131.414062 C 181.054688 132.070312 181.988281 132.683594 182.953125 133.246094 C 183.917969 133.8125 184.921875 134.324219 185.972656 134.78125 L 185.78125 135.21875 C 184.71875 134.753906 183.699219 134.234375 182.714844 133.660156 C 181.730469 133.085938 180.785156 132.460938 179.875 131.800781 Z M 180.152344 131.414062"/><path d="M 190.757812 134.125 C 191.761719 133.457031 192.707031 132.746094 193.601562 131.996094 C 194.492188 131.246094 195.339844 130.460938 196.144531 129.640625 L 196.484375 129.976562 C 195.671875 130.800781 194.816406 131.597656 193.90625 132.359375 C 192.996094 133.121094 192.039062 133.84375 191.023438 134.519531 Z M 190.757812 134.125"/><path d="M 177.996094 125.574219 C 177.554688 126.171875 177.117188 126.773438 176.679688 127.375 C 176.921875 129.390625 177.601562 131.328125 179.054688 133.109375 C 179.789062 132.835938 180.515625 132.621094 181.234375 132.464844 C 180.957031 131 180.769531 129.5 180.734375 127.941406 C 179.753906 127.207031 178.847656 126.410156 177.996094 125.574219 Z M 177.996094 125.574219" fill-rule="evenodd"/><path d="M 177.890625 121.332031 C 178.140625 121.410156 178.394531 121.488281 178.644531 121.566406 C 179.894531 120.4375 181.195312 119.835938 182.5 119.308594 C 182.972656 118.085938 183.480469 117.027344 183.996094 115.988281 C 180.933594 117.003906 179.019531 118.875 177.890625 121.332031 Z M 177.890625 121.332031" fill-rule="evenodd"/><path d="M 184.609375 121.347656 C 184.214844 122.867188 183.992188 124.382812 183.652344 125.96875 C 185.050781 126.78125 186.421875 127.554688 187.703125 128.359375 C 188.972656 126.972656 190.140625 126.046875 191.296875 125.183594 C 190.722656 123.589844 189.902344 122.109375 189.015625 120.660156 C 187.664062 120.746094 186.230469 120.933594 184.609375 121.347656 Z M 184.609375 121.347656" fill-rule="evenodd"/><path d="M 190.59375 118.28125 C 189.96875 117.324219 189.273438 116.421875 188.582031 115.519531 C 191.222656 115.648438 193.273438 116.882812 195.109375 118.515625 C 194.9375 118.671875 194.765625 118.824219 194.59375 118.976562 C 193.359375 118.667969 192.089844 118.382812 190.59375 118.28125 Z M 190.59375 118.28125" fill-rule="evenodd"/><path d="M 196.605469 123.074219 C 197.191406 123.414062 197.683594 123.835938 198.078125 124.335938 C 198.5 126.214844 198.125 128.296875 197.390625 130.476562 C 196.6875 130.535156 195.984375 130.597656 195.277344 130.660156 C 195.226562 129.070312 195.070312 127.519531 194.769531 126.027344 C 195.5 125.054688 196.109375 124.070312 196.605469 123.074219 Z M 196.605469 123.074219" fill-rule="evenodd"/><path d="M 188.320312 132.136719 C 189.605469 132.582031 190.953125 132.976562 192.433594 133.265625 C 192.332031 134.171875 191.933594 135.167969 191.402344 136.207031 C 189.75 136.832031 188.132812 137.121094 186.558594 137.007812 C 185.953125 136.238281 185.394531 135.425781 184.917969 134.550781 C 186.171875 133.835938 187.34375 133.058594 188.320312 132.136719 Z M 188.320312 132.136719" fill-rule="evenodd"/><g fill="#008037"><g><g><path d="M 2.730469 0 L 10.109375 0 L 10.109375 -13.171875 L 19.921875 0 L 25.972656 0 L 25.972656 -25.824219 L 18.628906 -25.824219 L 18.628906 -12.726562 L 8.816406 -25.824219 L 2.730469 -25.824219 Z M 2.730469 0" transform="translate(118.756 236.692)"/></g></g></g><g fill="#008037"><g><g><path d="M 15.308594 0.554688 C 23.539062 0.554688 29.367188 -5.015625 29.367188 -12.914062 C 29.367188 -20.808594 23.539062 -26.378906 15.308594 -26.378906 C 7.082031 -26.378906 1.253906 -20.808594 1.253906 -12.914062 C 1.253906 -5.015625 7.082031 0.554688 15.308594 0.554688 Z M 8.816406 -12.914062 C 8.816406 -16.785156 11.511719 -19.480469 15.308594 -19.480469 C 19.148438 -19.480469 21.804688 -16.785156 21.804688 -12.914062 C 21.804688 -9.039062 19.148438 -6.34375 15.308594 -6.34375 C 11.511719 -6.34375 8.816406 -9.039062 8.816406 -12.914062 Z M 8.816406 -12.914062" transform="translate(147.494 236.692)"/></g></g></g><g fill="#008037"><g><g><path d="M 11.988281 0.554688 C 18.410156 0.554688 22.210938 -2.472656 22.210938 -7.5625 C 22.210938 -11.84375 19.441406 -14.351562 13.171875 -15.753906 C 9.851562 -16.492188 8.632812 -17.300781 8.632812 -18.628906 C 8.632812 -19.886719 9.738281 -20.660156 11.472656 -20.660156 C 13.539062 -20.660156 14.71875 -19.589844 14.71875 -17.632812 L 21.730469 -17.632812 C 21.730469 -22.945312 17.671875 -26.378906 11.324219 -26.378906 C 5.238281 -26.378906 1.476562 -23.351562 1.476562 -18.484375 C 1.476562 -14.128906 4.316406 -11.4375 10.144531 -10.328125 C 13.28125 -9.703125 14.792969 -8.742188 14.792969 -7.269531 C 14.792969 -5.976562 13.6875 -5.238281 11.878906 -5.238281 C 9.738281 -5.238281 8.484375 -6.382812 8.484375 -8.375 L 1.292969 -8.375 C 1.292969 -2.804688 5.277344 0.554688 11.988281 0.554688 Z M 11.988281 0.554688" transform="translate(178.15 236.692)"/></g></g></g><g fill="#008037"><g><g><path d="M 11.988281 0.554688 C 18.410156 0.554688 22.210938 -2.472656 22.210938 -7.5625 C 22.210938 -11.84375 19.441406 -14.351562 13.171875 -15.753906 C 9.851562 -16.492188 8.632812 -17.300781 8.632812 -18.628906 C 8.632812 -19.886719 9.738281 -20.660156 11.472656 -20.660156 C 13.539062 -20.660156 14.71875 -19.589844 14.71875 -17.632812 L 21.730469 -17.632812 C 21.730469 -22.945312 17.671875 -26.378906 11.324219 -26.378906 C 5.238281 -26.378906 1.476562 -23.351562 1.476562 -18.484375 C 1.476562 -14.128906 4.316406 -11.4375 10.144531 -10.328125 C 13.28125 -9.703125 14.792969 -8.742188 14.792969 -7.269531 C 14.792969 -5.976562 13.6875 -5.238281 11.878906 -5.238281 C 9.738281 -5.238281 8.484375 -6.382812 8.484375 -8.375 L 1.292969 -8.375 C 1.292969 -2.804688 5.277344 0.554688 11.988281 0.554688 Z M 11.988281 0.554688" transform="translate(201.723 236.692)"/></g></g></g><g fill="#008037"><g><g><path d="M 15.308594 0.554688 C 23.539062 0.554688 29.367188 -5.015625 29.367188 -12.914062 C 29.367188 -20.808594 23.539062 -26.378906 15.308594 -26.378906 C 7.082031 -26.378906 1.253906 -20.808594 1.253906 -12.914062 C 1.253906 -5.015625 7.082031 0.554688 15.308594 0.554688 Z M 8.816406 -12.914062 C 8.816406 -16.785156 11.511719 -19.480469 15.308594 -19.480469 C 19.148438 -19.480469 21.804688 -16.785156 21.804688 -12.914062 C 21.804688 -9.039062 19.148438 -6.34375 15.308594 -6.34375 C 11.511719 -6.34375 8.816406 -9.039062 8.816406 -12.914062 Z M 8.816406 -12.914062" transform="translate(225.296 236.692)"/></g></g></g><g fill="#008037"><g><g><path d="M 2.730469 0 L 10.109375 0 L 10.109375 -13.097656 L 15.089844 -6.125 L 19.921875 -6.125 L 24.867188 -13.058594 L 24.867188 0 L 32.242188 0 L 32.242188 -25.824219 L 26.195312 -25.824219 L 17.488281 -13.539062 L 8.816406 -25.824219 L 2.730469 -25.824219 Z M 2.730469 0" transform="translate(113.67 269.692)"/></g></g></g><g fill="#008037"><g><g><path d="M 0.183594 0 L 8.078125 0 L 9.480469 -3.652344 L 18.296875 -3.652344 L 19.699219 0 L 27.632812 0 L 17.597656 -25.824219 L 10.21875 -25.824219 Z M 11.03125 -9.113281 L 13.910156 -17.117188 L 16.785156 -9.113281 Z M 11.03125 -9.113281" transform="translate(148.643 269.692)"/></g></g></g><g fill="#008037"><g><g><path d="M 2.730469 0 L 10.109375 0 L 10.109375 -13.171875 L 19.921875 0 L 25.972656 0 L 25.972656 -25.824219 L 18.628906 -25.824219 L 18.628906 -12.726562 L 8.816406 -25.824219 L 2.730469 -25.824219 Z M 2.730469 0" transform="translate(176.458 269.692)"/></g></g></g><g fill="#008037"><g><g><path d="M 8.890625 0 L 16.304688 0 L 16.304688 -18.925781 L 24.164062 -18.925781 L 24.164062 -25.824219 L 1.03125 -25.824219 L 1.03125 -18.925781 L 8.890625 -18.925781 Z M 8.890625 0" transform="translate(205.196 269.692)"/></g></g></g><g fill="#008037"><g><g><path d="M 15.308594 0.554688 C 23.539062 0.554688 29.367188 -5.015625 29.367188 -12.914062 C 29.367188 -20.808594 23.539062 -26.378906 15.308594 -26.378906 C 7.082031 -26.378906 1.253906 -20.808594 1.253906 -12.914062 C 1.253906 -5.015625 7.082031 0.554688 15.308594 0.554688 Z M 8.816406 -12.914062 C 8.816406 -16.785156 11.511719 -19.480469 15.308594 -19.480469 C 19.148438 -19.480469 21.804688 -16.785156 21.804688 -12.914062 C 21.804688 -9.039062 19.148438 -6.34375 15.308594 -6.34375 C 11.511719 -6.34375 8.816406 -9.039062 8.816406 -12.914062 Z M 8.816406 -12.914062" transform="translate(230.392 269.692)"/></g></g></g></svg>